<svg width="100" height="100" viewBox="0 0 100 100" fill="none" xmlns="http://www.w3.org/2000/svg">
  <defs>
    <linearGradient id="beaconGoldGrad" x1="0%" y1="0%" x2="100%" y2="100%">
      <stop offset="0%" stop-color="#F8F5EE" />
      <stop offset="50%" stop-color="#E6D5B8" />
      <stop offset="100%" stop-color="#D4B982" />
    </linearGradient>

    <linearGradient id="shieldGrad" x1="0%" y1="0%" x2="0%" y2="100%">
      <stop offset="0%" stop-color="#24211D" stop-opacity="0.95" />
      <stop offset="100%" stop-color="#0A0908" stop-opacity="0.95" />
    </linearGradient>

    <radialGradient id="beamGlow" cx="50%" cy="30%" r="50%">
      <stop offset="0%" stop-color="#F8F5EE" stop-opacity="0.9" />
      <stop offset="60%" stop-color="#E6D5B8" stop-opacity="0.4" />
      <stop offset="100%" stop-color="#E6D5B8" stop-opacity="0" />
    </radialGradient>
  </defs>

  <path d="M50 8 L85 24 V50 C85 71.5 70 87 50 94 C30 87 15 71.5 15 50 V24 L50 8 Z" fill="url(#shieldGrad)" stroke="url(#beaconGoldGrad)" stroke-width="3.5" stroke-linejoin="round" />
  <path d="M32 38 A 22 22 0 0 1 68 38" stroke="url(#beaconGoldGrad)" stroke-width="2.5" stroke-linecap="round" opacity="0.6" />
  <path d="M26 30 A 30 30 0 0 1 74 30" stroke="url(#beaconGoldGrad)" stroke-width="2" stroke-linecap="round" opacity="0.35" />
  <polygon points="50,26 22,14 78,14" fill="url(#beamGlow)" opacity="0.6" />
  <polygon points="43,72 57,72 54,42 46,42" fill="url(#beaconGoldGrad)" />
  <path d="M38 78 H62 V72 H38 V78 Z" fill="url(#beaconGoldGrad)" />
  <circle cx="50" cy="38" r="6" fill="#F8F5EE" />
  <circle cx="50" cy="38" r="9" stroke="url(#beaconGoldGrad)" stroke-width="2" fill="none" />
  <line x1="50" y1="29" x2="50" y2="20" stroke="url(#beaconGoldGrad)" stroke-width="3" stroke-linecap="round" />
  <circle cx="50" cy="18" r="2.5" fill="#F8F5EE" />
</svg>
